<?xml version="1.0" encoding="UTF-8"?>
<svg id="Layer_1" data-name="Layer 1" xmlns="http://www.w3.org/2000/svg" xmlns:xlink="http://www.w3.org/1999/xlink" viewBox="0 0 427.28 259.6">
  <defs>
    <style>
      .cls-1 {
        fill: url(#linear-gradient-2);
      }

      .cls-2 {
        fill: #231f20;
        font-family: NirmalaUI-Semilight, 'Nirmala UI';
        font-size: 34.92px;
        font-weight: 300;
        stroke: #231f20;
      }

      .cls-2, .cls-3 {
        stroke-miterlimit: 10;
      }

      .cls-4 {
        letter-spacing: 0em;
      }

      .cls-5 {
        fill: #92278f;
      }

      .cls-3 {
        fill: #752877;
        stroke: #69276b;
        stroke-width: 5px;
      }

      .cls-6 {
        font-family: ArialMT, Arial;
        font-size: .06px;
      }

      .cls-7 {
        fill: #39b54a;
      }

      .cls-8 {
        fill: url(#linear-gradient-5);
      }

      .cls-9 {
        letter-spacing: -.02em;
      }

      .cls-10 {
        fill: url(#linear-gradient-3);
      }

      .cls-11 {
        fill: url(#linear-gradient);
      }

      .cls-12 {
        fill: #ec008c;
      }

      .cls-13 {
        fill: url(#linear-gradient-4);
      }
    </style>
    <linearGradient id="linear-gradient" x1="82.45" y1="135.13" x2="137.71" y2="153.41" gradientUnits="userSpaceOnUse">
      <stop offset="0" stop-color="#662d91"/>
      <stop offset=".19" stop-color="#632c8e"/>
      <stop offset=".32" stop-color="#5d2984"/>
      <stop offset=".44" stop-color="#522575"/>
      <stop offset=".55" stop-color="#421f5e"/>
      <stop offset=".65" stop-color="#2e1742"/>
      <stop offset=".74" stop-color="#180f23"/>
    </linearGradient>
    <linearGradient id="linear-gradient-2" x1="113.82" y1="153.65" x2="167.71" y2="123.79" gradientUnits="userSpaceOnUse">
      <stop offset="0" stop-color="#00a651"/>
      <stop offset=".23" stop-color="#00a350"/>
      <stop offset=".39" stop-color="#019a4d"/>
      <stop offset=".53" stop-color="#048a48"/>
      <stop offset=".66" stop-color="#077441"/>
      <stop offset=".78" stop-color="#0c5839"/>
      <stop offset=".9" stop-color="#11352e"/>
      <stop offset="1" stop-color="#180f23"/>
    </linearGradient>
    <linearGradient id="linear-gradient-3" x1="152.05" y1="132.11" x2="210.48" y2="151.22" gradientUnits="userSpaceOnUse">
      <stop offset="0" stop-color="#f7941d"/>
      <stop offset=".34" stop-color="#f5921d"/>
      <stop offset=".46" stop-color="#ee8e1d"/>
      <stop offset=".54" stop-color="#e2871d"/>
      <stop offset=".61" stop-color="#d17d1e"/>
      <stop offset=".67" stop-color="#bb701e"/>
      <stop offset=".73" stop-color="#a0601f"/>
      <stop offset=".77" stop-color="#7f4d20"/>
      <stop offset=".82" stop-color="#5a3621"/>
      <stop offset=".86" stop-color="#311e22"/>
      <stop offset=".88" stop-color="#180f23"/>
    </linearGradient>
    <linearGradient id="linear-gradient-4" x1="290.37" y1="154.17" x2="343.24" y2="122.53" gradientUnits="userSpaceOnUse">
      <stop offset="0" stop-color="#f15a29"/>
      <stop offset=".32" stop-color="#ee5928"/>
      <stop offset=".47" stop-color="#e75628"/>
      <stop offset=".57" stop-color="#db5228"/>
      <stop offset=".66" stop-color="#c94c27"/>
      <stop offset=".74" stop-color="#b14427"/>
      <stop offset=".81" stop-color="#943a26"/>
      <stop offset=".88" stop-color="#722e25"/>
      <stop offset=".94" stop-color="#4a2024"/>
      <stop offset=".99" stop-color="#1f1123"/>
      <stop offset="1" stop-color="#180f23"/>
    </linearGradient>
    <linearGradient id="linear-gradient-5" x1="327.62" y1="132.11" x2="386.04" y2="151.22" gradientUnits="userSpaceOnUse">
      <stop offset="0" stop-color="#00aeef"/>
      <stop offset=".27" stop-color="#00acec"/>
      <stop offset=".4" stop-color="#01a6e5"/>
      <stop offset=".5" stop-color="#029cd8"/>
      <stop offset=".58" stop-color="#048ec6"/>
      <stop offset=".65" stop-color="#077bae"/>
      <stop offset=".72" stop-color="#0b6491"/>
      <stop offset=".78" stop-color="#0f496e"/>
      <stop offset=".84" stop-color="#132a46"/>
      <stop offset=".88" stop-color="#180f23"/>
    </linearGradient>
  </defs>
  <g id="MTEXT">
    <text class="cls-6" transform="translate(136.94 .05) scale(1.28 1)"><tspan x="0" y="0">WIN</tspan></text>
  </g>
  <g id="MTEXT-2" data-name="MTEXT">
    <text class="cls-6" transform="translate(346.53 .05) rotate(-180) scale(1.28 -1)"><tspan x="0" y="0">WIN</tspan></text>
  </g>
  <g id="MTEXT-3" data-name="MTEXT">
    <text class="cls-6" transform="translate(118.72 41.77) scale(1.28 1)"><tspan x="0" y="0">WIN</tspan></text>
  </g>
  <g id="MTEXT-4" data-name="MTEXT">
    <text class="cls-6" transform="translate(328.31 41.77) rotate(-180) scale(1.28 -1)"><tspan x="0" y="0">WIN</tspan></text>
  </g>
  <g id="LINE">
    <polyline class="cls-11" points="69.52 86.16 106.47 194.8 127.72 194.8 90.77 86.16 69.52 86.16"/>
  </g>
  <g id="LINE-2" data-name="LINE">
    <polyline class="cls-7" points="235.22 194.8 256.48 194.8 293.42 86.16 272.17 86.16 235.22 194.8"/>
  </g>
  <g id="LINE-3" data-name="LINE">
    <polyline class="cls-1" points="106.59 194.79 128.03 194.79 127.93 195.07 168.21 86.16 146.76 86.16 106.59 194.79"/>
  </g>
  <g id="LINE-4" data-name="LINE">
    <polygon class="cls-10" points="208.32 194.48 197.25 164.53 168.27 86.16 146.82 86.16 186.97 194.73 187 194.8 208.32 194.48"/>
  </g>
  <g id="LINE-5" data-name="LINE">
    <polygon class="cls-12" points="245.15 86.16 208.32 194.48 208.21 194.8 186.95 194.8 186.97 194.73 197.25 164.53 197.25 164.52 223.9 86.16 245.15 86.16"/>
  </g>
  <line class="cls-3" x1="69.52" y1="208.41" x2="421.99" y2="208.41"/>
  <g id="LINE-6" data-name="LINE">
    <polyline class="cls-13" points="282.26 194.8 303.7 194.8 303.6 195.07 343.88 86.16 322.43 86.16 282.26 194.8"/>
  </g>
  <g id="LINE-7" data-name="LINE">
    <polygon class="cls-8" points="383.88 194.46 372.82 164.53 343.84 86.16 322.39 86.16 362.54 194.73 362.57 194.8 383.88 194.46"/>
  </g>
  <g id="LINE-8" data-name="LINE">
    <polygon class="cls-5" points="420.72 86.16 383.88 194.46 383.77 194.8 362.52 194.8 362.54 194.73 372.82 164.53 372.82 164.52 399.47 86.16 420.72 86.16"/>
  </g>
  <text class="cls-2" transform="translate(69.52 247.47) scale(1.52 1)"><tspan x="0" y="0">VIS</tspan><tspan class="cls-9" x="47.96" y="0">U</tspan><tspan class="cls-4" x="70.57" y="0">AL DESIGN</tspan></text>
</svg>