<?xml version="1.0" encoding="UTF-8"?>
<svg id="Layer_1" data-name="Layer 1" xmlns="http://www.w3.org/2000/svg" xmlns:xlink="http://www.w3.org/1999/xlink" viewBox="0 0 351.2 108.91">
  <defs>
    <style>
      .cls-1 {
        fill: url(#linear-gradient-2);
      }

      .cls-2 {
        fill: #92278f;
      }

      .cls-3 {
        fill: #39b54a;
      }

      .cls-4 {
        fill: url(#linear-gradient-5);
      }

      .cls-5 {
        fill: url(#linear-gradient-3);
      }

      .cls-6 {
        fill: url(#linear-gradient);
      }

      .cls-7 {
        fill: #ec008c;
      }

      .cls-8 {
        fill: url(#linear-gradient-4);
      }
    </style>
    <linearGradient id="linear-gradient" x1="12.93" y1="1103.29" x2="68.19" y2="1121.57" gradientTransform="translate(0 -1054.32)" gradientUnits="userSpaceOnUse">
      <stop offset="0" stop-color="#92278f"/>
      <stop offset=".19" stop-color="#92278f"/>
      <stop offset=".32" stop-color="#92278f"/>
      <stop offset=".44" stop-color="#7a2d78"/>
      <stop offset=".55" stop-color="#642061"/>
      <stop offset=".65" stop-color="#4c0049"/>
      <stop offset=".74" stop-color="#380035"/>
    </linearGradient>
    <linearGradient id="linear-gradient-2" x1="44.3" y1="1121.81" x2="98.19" y2="1091.95" gradientTransform="translate(0 -1054.32)" gradientUnits="userSpaceOnUse">
      <stop offset="0" stop-color="#00a651"/>
      <stop offset=".23" stop-color="#00a350"/>
      <stop offset=".39" stop-color="#019a4d"/>
      <stop offset=".53" stop-color="#048a48"/>
      <stop offset=".66" stop-color="#077441"/>
      <stop offset=".78" stop-color="#0c5839"/>
      <stop offset=".9" stop-color="#11352e"/>
      <stop offset="1" stop-color="#180f23"/>
    </linearGradient>
    <linearGradient id="linear-gradient-3" x1="82.53" y1="1100.27" x2="140.96" y2="1119.38" gradientTransform="translate(0 -1054.32)" gradientUnits="userSpaceOnUse">
      <stop offset="0" stop-color="#f7941d"/>
      <stop offset=".34" stop-color="#f5921d"/>
      <stop offset=".46" stop-color="#ee8e1d"/>
      <stop offset=".54" stop-color="#e2871d"/>
      <stop offset=".61" stop-color="#d17d1e"/>
      <stop offset=".67" stop-color="#bb701e"/>
      <stop offset=".73" stop-color="#a0601f"/>
      <stop offset=".77" stop-color="#7f4d20"/>
      <stop offset=".82" stop-color="#5a3621"/>
      <stop offset=".86" stop-color="#311e22"/>
      <stop offset=".88" stop-color="#180f23"/>
    </linearGradient>
    <linearGradient id="linear-gradient-4" x1="220.85" y1="1122.33" x2="273.72" y2="1090.69" gradientTransform="translate(0 -1054.32)" gradientUnits="userSpaceOnUse">
      <stop offset="0" stop-color="#f15a29"/>
      <stop offset=".32" stop-color="#ee5928"/>
      <stop offset=".47" stop-color="#e75628"/>
      <stop offset=".57" stop-color="#db5228"/>
      <stop offset=".66" stop-color="#c94c27"/>
      <stop offset=".74" stop-color="#b14427"/>
      <stop offset=".81" stop-color="#943a26"/>
      <stop offset=".88" stop-color="#722e25"/>
      <stop offset=".94" stop-color="#4a2024"/>
      <stop offset=".99" stop-color="#1f1123"/>
      <stop offset="1" stop-color="#180f23"/>
    </linearGradient>
    <linearGradient id="linear-gradient-5" x1="258.1" y1="1100.27" x2="316.52" y2="1119.38" gradientTransform="translate(0 -1054.32)" gradientUnits="userSpaceOnUse">
      <stop offset="0" stop-color="#00aeef"/>
      <stop offset=".27" stop-color="#00acec"/>
      <stop offset=".4" stop-color="#01a6e5"/>
      <stop offset=".5" stop-color="#029cd8"/>
      <stop offset=".58" stop-color="#048ec6"/>
      <stop offset=".65" stop-color="#077bae"/>
      <stop offset=".72" stop-color="#0b6491"/>
      <stop offset=".78" stop-color="#0f496e"/>
      <stop offset=".84" stop-color="#132a46"/>
      <stop offset=".88" stop-color="#180f23"/>
    </linearGradient>
  </defs>
  <g id="LINE">
    <polyline class="cls-6" points="0 0 36.95 108.64 58.2 108.64 21.25 0 0 0"/>
  </g>
  <g id="LINE-2">
    <polyline class="cls-3" points="165.7 108.64 186.96 108.64 223.9 0 202.65 0 165.7 108.64"/>
  </g>
  <g id="LINE-3">
    <polyline class="cls-1" points="37.07 108.63 58.51 108.63 58.41 108.91 98.69 0 77.24 0 37.07 108.63"/>
  </g>
  <g id="LINE-4">
    <polygon class="cls-5" points="138.8 108.32 127.73 78.37 98.75 0 77.3 0 117.45 108.57 117.48 108.64 138.8 108.32"/>
  </g>
  <g id="LINE-5">
    <polygon class="cls-7" points="175.63 0 138.8 108.32 138.69 108.64 117.43 108.64 117.45 108.57 127.73 78.37 127.73 78.36 154.38 0 175.63 0"/>
  </g>
  <g id="LINE-6">
    <polyline class="cls-8" points="212.74 108.64 234.18 108.64 234.08 108.91 274.36 0 252.91 0 212.74 108.64"/>
  </g>
  <g id="LINE-7">
    <polygon class="cls-4" points="314.36 108.3 303.3 78.37 274.32 0 252.87 0 293.02 108.57 293.05 108.64 314.36 108.3"/>
  </g>
  <g id="LINE-8">
    <polygon class="cls-2" points="351.2 0 314.36 108.3 314.25 108.64 293 108.64 293.02 108.57 303.3 78.37 303.3 78.36 329.95 0 351.2 0"/>
  </g>
</svg>